inDegrees=no
num_controls=7
num_derivatives=13
num_iterations=194
num_multipliers=7
num_parameters=0
num_slacks=7
num_states=26
objective=5.817916
objective_accelerations=0.483994
objective_balance=0.054118
objective_effort=0.437691
objective_height=4.724271
objective_ligament=0.117841
solver_duration=1980.725116
status=Solve_Succeeded
success=true
DataType=double
version=3
OpenSimVersion=4.4-2022-07-23-0e9fedc
endheader
time	/jointset/ground_pelvis/pelvis_tilt/value	/jointset/ground_pelvis/pelvis_tx/value	/jointset/ground_pelvis/pelvis_ty/value	/jointset/hip_l/hip_flexion_l/value	/jointset/hip_l/hip_adduction_l/value	/jointset/hip_l/hip_rotation_l/value	/jointset/back/lumbar_extension/value	/jointset/patellofemoral_l/patellar_flexion_l/value	/jointset/knee_l/knee_flexion_l/value	/jointset/knee_l/knee_adduction_l/value	/jointset/knee_l/knee_rotation_l/value	/jointset/ankle_l/ankle_angle_l/value	/jointset/subtalar_l/subtalar_angle_l/value	/jointset/ground_pelvis/pelvis_tilt/speed	/jointset/ground_pelvis/pelvis_tx/speed	/jointset/ground_pelvis/pelvis_ty/speed	/jointset/hip_l/hip_flexion_l/speed	/jointset/hip_l/hip_adduction_l/speed	/jointset/hip_l/hip_rotation_l/speed	/jointset/back/lumbar_extension/speed	/jointset/patellofemoral_l/patellar_flexion_l/speed	/jointset/knee_l/knee_flexion_l/speed	/jointset/knee_l/knee_adduction_l/speed	/jointset/knee_l/knee_rotation_l/speed	/jointset/ankle_l/ankle_angle_l/speed	/jointset/subtalar_l/subtalar_angle_l/speed	/forceset/tau_hip_flexion_l	/forceset/tau_hip_adduction_l	/forceset/tau_hip_rotation_l	/forceset/tau_knee_flexion_l	/forceset/tau_ankle_angle_l	/forceset/tau_subtalar_angle_l	/forceset/tau_lumbar_extension	lambda_cid13_p0	lambda_cid13_p1	lambda_cid13_p2	lambda_cid13_p3	lambda_cid13_p4	lambda_cid13_p5	lambda_cid14_p0	/jointset/ground_pelvis/pelvis_tilt/accel	/jointset/ground_pelvis/pelvis_tx/accel	/jointset/ground_pelvis/pelvis_ty/accel	/jointset/hip_l/hip_flexion_l/accel	/jointset/hip_l/hip_adduction_l/accel	/jointset/hip_l/hip_rotation_l/accel	/jointset/back/lumbar_extension/accel	/jointset/patellofemoral_l/patellar_flexion_l/accel	/jointset/knee_l/knee_flexion_l/accel	/jointset/knee_l/knee_adduction_l/accel	/jointset/knee_l/knee_rotation_l/accel	/jointset/ankle_l/ankle_angle_l/accel	/jointset/subtalar_l/subtalar_angle_l/accel	gamma_cid13_p0	gamma_cid13_p1	gamma_cid13_p2	gamma_cid13_p3	gamma_cid13_p4	gamma_cid13_p5	gamma_cid14_p0
0	-0.03682271969173962	0.05667758459671568	0.920341589790909	0.3085811930696054	-0.2956404757095542	-0.301607231295021	-0.3879500408040475	0.2499276582270868	0.249927658227084	-0.1745329251994329	-0.1745329251994329	-0.0008036543073733089	0.000437603624010051	0	0	0	0	0	0	0	0	0	0	0	0	0	0.07265564382946332	-0.06183305157484757	-0.0225382224293042	-0.2655368485011519	0.2336442836327628	-0.01099850233425884	0.008788815371015038	31.61333520308897	-2.933478171656546	2.497584521240159	-8.552043840980172	-630.3364168859142	-80.94000435829049	-23.19699233175727	-0.4413290920398017	-1.523654077896511	-0.7811319359359435	7.800437018853518	-0.7275577923102963	3.138869444009324	-6.870210773908906	9.032922635142629	9.03292263514277	1.402624977737204	-0.07233722794143231	2.250713240489227	-0.01420725583108352	-1.477256061969525e-09	1.460854481100116e-07	5.426362707075038e-08	-3.44195133046043e-09	8.839636285306006e-08	-7.15898280991428e-09	6.515323992447429e-09
0.01	-0.03684179227842493	0.05660283676578318	0.9203034561337755	0.3089607058031151	-0.2956769218798811	-0.3014493172045442	-0.3882917621533692	0.2503702546287227	0.2503702546287242	-0.1744662157924548	-0.1745328668357054	-0.0006931520739861393	0.00043610682916094	-0.003795681001647451	-0.01482172993125298	-0.007593951790989954	0.07547841487670422	-0.007251329926656228	0.03143404640184348	-0.0678631685832642	0.08811035854502311	0.08811035854502411	0.01327616791476479	1.720212111396677e-05	0.02207469575851046	-0.0002676465072095844	0.06795705095368497	-0.06941906341261175	-0.02196723641655942	-0.2623934895904513	0.2281535867664775	-0.0009670157586509091	0.01349298543931376	30.11652372654293	-6.965793438496928	3.069308583488149	-9.185378330582402	-632.993138327411	-89.03351597471729	-23.20204939314168	-0.3458691525797379	-1.442257700875794	-0.7435921760567972	7.357918506976972	-0.7182684667306521	3.123356122479817	-6.672204708355623	8.63875289378201	8.638752893782033	1.280014891095869	0.03949553947893269	2.181988689627379	-0.02831600532308019	-2.804539095510095e-08	1.424292388415198e-07	1.228639781681359e-07	2.348521283176409e-08	-2.005129885464761e-08	-5.696523545303776e-08	-5.187834219123006e-10
0.02	-0.03689825798479563	0.05638370658551085	0.9201903698836571	0.3100822776423729	-0.2957847509242519	-0.300981525873207	-0.3892976821500867	0.2516816867017324	0.2516816867017332	-0.1742687551891163	-0.1745324842368266	-0.000362674693794703	0.0004328790378083226	-0.007478623937398208	-0.02887646986796533	-0.0149905185969878	0.1484118211493307	-0.01427657480880623	0.06197544817200555	-0.1328397294793423	0.1737671342740421	0.1737671342740426	0.02614842353951912	6.426853587156856e-05	0.04399502936083875	-0.0003461993007067863	0.06325845807791065	-0.07700507525038192	-0.02139625040383915	-0.2592501306797438	0.222662889900192	0.009064470816951208	0.01819715550761682	28.68936766822493	-11.00946174611705	3.641880088964972	-9.964822873985716	-634.6355434494063	-97.03735250514275	-23.21691030877545	-0.4187814788604499	-1.370256078988396	-0.7416549389375234	7.291435298037976	-0.6823407834090541	2.960340517672995	-6.292889236471664	8.54220607194182	8.542206071941653	1.321842519735112	-0.06636436921275754	2.219840809252781	0.02361148691138613	-5.461352584823238e-08	1.387730295730279e-07	1.914643292655215e-07	5.041237699398862e-08	-1.284989605623553e-07	-1.067714880961612e-07	-7.55289083627203e-09
0.03	-0.0369909130172581	0.05602742494434323	0.9200040725066242	0.3119211139788926	-0.2959616500416741	-0.3002134435081563	-0.3909392008428761	0.2538376843905299	0.2538376843905263	-0.1739446267238469	-0.1745321340690474	0.0001856695612951668	0.000429668942826178	-0.01100806228387529	-0.04229585358586375	-0.02225582584430525	0.2189711069837485	-0.02106409001121433	0.09149490077026343	-0.1950294837334056	0.2570345845456727	0.2570345845456707	0.0385894372022568	1.367165884479638e-05	0.06559019896315878	-0.0002836652031472641	0.05640260574182211	-0.06969668607351572	-0.0204354628125616	-0.2524192429560047	0.2154618237896152	0.006939147938921566	0.02403136120742182	26.2348700255754	-9.756024927397615	3.555535766722008	-8.928131759361724	-636.0788960435667	-93.55627965692544	-23.24095850302614	-0.3133818108334497	-1.315168610011887	-0.7170251108021073	6.880516281485297	-0.6711322884801959	2.925806755773016	-6.116839718075618	8.159343202890357	8.159343202890073	1.192100091124904	0.02680687550766104	2.116812486109914	-0.0006462822485357864	-7.487000769561106e-08	1.155039538105664e-07	2.55044710815984e-07	6.648173964331291e-08	-2.079280140952323e-07	-1.56496675026232e-07	-1.623743735968616e-08
0.04	-0.03711753379284115	0.05553947164763226	0.9197455107584838	0.3144540113848266	-0.2962052593910857	-0.2991545547921491	-0.3931895813178454	0.2568144223216634	0.2568144223216638	-0.1734987142616362	-0.1745320470255454	0.0009474570024859758	0.0004274400581343093	-0.01427177256204383	-0.05521080097663591	-0.02944339281848981	0.2872240350318273	-0.02761862120656362	0.1201367183633551	-0.2546120859155432	0.3379151827419726	0.3379151827419692	0.05050522292826647	1.164368003016321e-05	0.08668366658101223	-0.0001499572426587571	0.04954675340574155	-0.06238829689665121	-0.019474675221244	-0.2455883552322605	0.2082607576790424	0.004813825060890954	0.02986556690722942	23.84533604771362	-8.510851287977047	3.466955290967459	-8.034737517960831	-636.5861710705038	-89.98801565831499	-23.27341217490468	-0.3656358651987291	-1.26936881356316	-0.7261068843109464	6.830163740770181	-0.6357439819972917	2.784813516639736	-5.771458822086517	8.064835656875699	8.064835656875724	1.216796932389518	-0.05665058957035114	2.119500412359452	0.03784625949717838	-9.499635236678866e-08	9.183048904822923e-08	3.185215878397059e-07	8.232723009649495e-08	-2.867587458100715e-07	-2.062201904983017e-07	-2.495601355545192e-08
0.05	-0.03727582784871534	0.05492509127798556	0.919415306382386	0.3176582382189503	-0.2965131409623705	-0.2978140957846304	-0.3960225348401832	0.2605882655547113	0.2605882655547137	-0.1729361576681211	-0.1745321556959304	0.001917941084126037	0.000427108131998396	-0.0173559900026781	-0.06756065603207237	-0.0365951616767524	0.3532302473916463	-0.03390837907680281	0.1478020422634497	-0.3115481717712314	0.4164526885780653	0.4164526885780609	0.06191861887623872	-2.221675933515354e-05	0.1073503832857344	0.0001129599905088671	0.04347061678873058	-0.06070018187180184	-0.01867096080392525	-0.2411129592185854	0.2025597051458949	0.007032730400240016	0.03526819141172246	22.0889767704384	-9.195772422532904	3.609019753657281	-7.856398050168336	-637.3922522331325	-90.60711721733976	-23.31327903262312	-0.2751609774021567	-1.202084720004891	-0.7094217667028335	6.427177178714011	-0.6182532444310361	2.73439138822777	-5.590116450149364	7.688096815174348	7.688096815174148	1.09053826645495	0.02497244142639453	2.030840883434338	0.02487182702598879	-1.095603248934318e-07	4.38506329410513e-08	3.610026080169674e-07	9.211097776574525e-08	-3.492730968459444e-07	-2.45816069832497e-07	-3.390659713590088e-08
0.06	-0.03746403333777521	0.05419035418409021	0.919013642341682	0.3215107926156984	-0.2968824524233367	-0.296201583625804	-0.3994119358176448	0.265135461599763	0.2651354615997631	-0.1722620816470336	-0.1745322577281898	0.003093209049594524	0.0004302768525540691	-0.02025405919957199	-0.07928214582636557	-0.04373532573971974	0.4168895475565128	-0.03990459914279387	0.1745473486248838	-0.3659015769404913	0.4925857451420911	0.4925857451420851	0.07280910844236542	1.297130313997232e-05	0.1276404433466871	0.0005501720956536896	0.03739448017172059	-0.05901206684695676	-0.01786724638662961	-0.2366375632049038	0.1968586526127482	0.009251635739585208	0.0406708159162164	20.39124235150749	-9.890095734160425	3.751598251121116	-7.815714482595579	-637.3555015526248	-91.15143425098526	-23.35942503526964	-0.3284062164506416	-1.143695761334529	-0.723785925251897	6.360781301779701	-0.5770364211476612	2.600810008907651	-5.254922684800842	7.583945802462306	7.583945802462241	1.112215656020418	-0.04284088920226177	2.044169083605538	0.07270523389261495	-1.238900922771471e-07	-5.152650170119905e-09	4.025995921164833e-07	1.016394941598826e-07	-4.11100442379545e-07	-2.849855223819396e-07	-4.286694944833649e-08
